<svg id="visual" viewBox="0 0 900 600" width="900" height="600" xmlns="http://www.w3.org/2000/svg"
    xmlns:xlink="http://www.w3.org/1999/xlink" version="1.1">
    <!-- <rect x="0" y="0" width="900" height="600" fill="#001220"></rect> -->
    <path
        d="M0 117L37.5 123.8C75 130.7 150 144.3 225 158.8C300 173.3 375 188.7 450 195.7C525 202.7 600 201.3 675 196.3C750 191.3 825 182.7 862.5 178.3L900 174L900 0L862.5 0C825 0 750 0 675 0C600 0 525 0 450 0C375 0 300 0 225 0C150 0 75 0 37.5 0L0 0Z"
        fill="#15c120"></path>
    <path
        d="M0 105L37.5 111.5C75 118 150 131 225 144.3C300 157.7 375 171.3 450 172.3C525 173.3 600 161.7 675 148.2C750 134.7 825 119.3 862.5 111.7L900 104L900 0L862.5 0C825 0 750 0 675 0C600 0 525 0 450 0C375 0 300 0 225 0C150 0 75 0 37.5 0L0 0Z"
        fill="#00aaa3"></path>
    <path
        d="M0 95L37.5 87.2C75 79.3 150 63.7 225 71.2C300 78.7 375 109.3 450 112C525 114.7 600 89.3 675 72.7C750 56 825 48 862.5 44L900 40L900 0L862.5 0C825 0 750 0 675 0C600 0 525 0 450 0C375 0 300 0 225 0C150 0 75 0 37.5 0L0 0Z"
        fill="#0083a8"></path>
    <path
        d="M0 77L37.5 69.3C75 61.7 150 46.3 225 45.5C300 44.7 375 58.3 450 53.2C525 48 600 24 675 18.7C750 13.3 825 26.7 862.5 33.3L900 40L900 0L862.5 0C825 0 750 0 675 0C600 0 525 0 450 0C375 0 300 0 225 0C150 0 75 0 37.5 0L0 0Z"
        fill="#085995"></path>
</svg>